<svg width="393" height="107" viewBox="0 0 393 107" fill="none" xmlns="http://www.w3.org/2000/svg">
<g filter="url(#filter0_d_3323_2380)">
<path fill-rule="evenodd" clip-rule="evenodd" d="M154.686 32C158.861 32 162.371 29.0519 164.232 25.3141C169.905 13.9193 182.444 6 197 6C211.556 6 224.095 13.9193 229.768 25.3141C231.629 29.0519 235.139 32 239.314 32H387C390.314 32 393 34.6863 393 38V86C393 97.598 383.598 107 372 107H21C9.40201 107 0 97.598 0 86V38C0 34.6863 2.68629 32 6 32H154.686Z" fill="white"/>
</g>
<defs>
<filter id="filter0_d_3323_2380" x="-10" y="0" width="413" height="121" filterUnits="userSpaceOnUse" color-interpolation-filters="sRGB">
<feFlood flood-opacity="0" result="BackgroundImageFix"/>
<feColorMatrix in="SourceAlpha" type="matrix" values="0 0 0 0 0 0 0 0 0 0 0 0 0 0 0 0 0 0 127 0" result="hardAlpha"/>
<feOffset dy="4"/>
<feGaussianBlur stdDeviation="5"/>
<feComposite in2="hardAlpha" operator="out"/>
<feColorMatrix type="matrix" values="0 0 0 0 0 0 0 0 0 0 0 0 0 0 0 0 0 0 0.25 0"/>
<feBlend mode="normal" in2="BackgroundImageFix" result="effect1_dropShadow_3323_2380"/>
<feBlend mode="normal" in="SourceGraphic" in2="effect1_dropShadow_3323_2380" result="shape"/>
</filter>
</defs>
</svg>
